<?xml version="1.0" standalone="no"?>
<!DOCTYPE svg PUBLIC "-//W3C//DTD SVG 20010904//EN"
 "http://www.w3.org/TR/2001/REC-SVG-20010904/DTD/svg10.dtd">
<svg version="1.0" xmlns="http://www.w3.org/2000/svg"
 width="559.000000pt" height="559.000000pt" viewBox="0 0 559.000000 559.000000"
 preserveAspectRatio="xMidYMid meet">
<metadata>
Created by potrace 1.14, written by Peter Selinger 2001-2017
</metadata>
<g transform="translate(0.000000,559.000000) scale(0.100000,-0.100000)"
fill="#000000" stroke="none">
<path d="M2652 4002 c-22 -3 -22 -7 -20 -92 1 -65 5 -91 15 -94 23 -9 43 -72
43 -139 0 -105 -25 -178 -97 -285 l-22 -34 28 -51 c42 -75 120 -278 147 -382
l23 -90 1 153 c3 313 3 322 -14 322 -26 0 -28 58 -2 61 36 4 73 5 83 1 27 -9
25 -62 -3 -62 -10 0 -14 -15 -15 -57 0 -32 -1 -133 -2 -226 -1 -92 1 -167 5
-167 3 0 12 24 18 53 25 102 86 265 142 373 l37 73 -33 49 c-64 92 -97 197
-90 284 8 87 15 109 37 117 20 8 22 15 22 99 l0 90 -41 7 c-42 6 -220 4 -262
-3z"/>
<path d="M2475 3960 c-199 -71 -361 -188 -478 -343 -308 -408 -269 -966 93
-1327 489 -487 1319 -337 1614 291 41 87 79 214 91 299 27 201 -27 454 -135
640 -122 208 -345 381 -587 455 -13 3 -23 3 -24 -2 -1 -4 -2 -36 -3 -71 -1
-54 2 -63 19 -68 45 -14 183 -85 226 -116 236 -170 371 -429 372 -713 0 -63
-13 -179 -22 -194 -5 -7 -30 -15 -57 -17 -27 -2 -72 -9 -100 -15 -28 -5 -62
-12 -77 -14 -44 -8 -198 -66 -262 -97 -93 -47 -214 -130 -284 -197 -35 -34
-64 -61 -65 -61 -1 0 -31 27 -67 61 -192 181 -462 299 -743 324 -37 3 -43 16
-52 93 -25 239 29 454 161 630 101 135 261 258 391 299 51 16 52 17 56 57 4
52 -1 106 -10 105 -4 0 -29 -9 -57 -19z m-375 -1245 c4 -2 22 -7 41 -10 72
-12 228 -69 324 -118 85 -44 116 -67 204 -155 92 -91 108 -103 135 -100 19 1
37 12 48 27 74 107 254 234 412 290 125 44 216 67 304 77 l53 6 -21 -52 c-28
-71 -35 -83 -93 -168 -52 -76 -163 -186 -232 -231 -65 -42 -171 -90 -248 -112
-95 -28 -314 -35 -402 -14 -33 8 -69 17 -80 19 -23 5 -76 27 -152 63 -160 75
-337 272 -407 452 l-17 43 62 -6 c34 -4 65 -9 69 -11z"/>
<path d="M2280 3065 c-72 -76 -252 -185 -304 -185 -29 0 -8 -15 23 -16 63 -2
258 -46 359 -80 150 -50 293 -135 382 -227 l54 -57 55 56 c79 80 198 157 322
207 37 15 202 65 235 71 50 9 162 27 187 30 30 3 50 16 23 16 -25 0 -138 53
-193 91 -26 18 -72 55 -100 82 l-53 50 -47 -18 c-174 -65 -305 -186 -393 -363
-31 -61 -40 -73 -45 -57 -29 93 -129 235 -219 308 -52 43 -177 110 -226 122
-20 5 -32 -1 -60 -30z"/>
</g>
</svg>
